Coordinates
version=1
nRows=8
nColumns=36
inDegrees=yes

Units are S.I. units (second, meters, Newtons, ...)
If the header above contains a line with 'inDegrees', this indicates whether rotational values are in degrees (yes) or radians (no).

endheader
time	pelvis_tilt	pelvis_list	pelvis_rotation	pelvis_tx	pelvis_ty	pelvis_tz	hip_flexion_r	hip_adduction_r	hip_rotation_r	knee_angle_r	knee_angle_r_beta	ankle_angle_r	subtalar_angle_r	mtp_angle_r	hip_flexion_l	hip_adduction_l	hip_rotation_l	knee_angle_l	knee_angle_l_beta	ankle_angle_l	subtalar_angle_l	mtp_angle_l	lumbar_extension	lumbar_bending	lumbar_rotation	arm_flex_r	arm_add_r	arm_rot_r	elbow_flex_r	pro_sup_r	arm_flex_l	arm_add_l	arm_rot_l	elbow_flex_l	pro_sup_l
      3.00000000	    -42.55728503	     -0.52630741	     -2.99434070	     -0.04431297	      0.56616262	     -0.08101403	    114.74733128	     -8.51908536	      0.77258955	    102.01324887	      1.78046707	     39.79186603	      0.64657069	     -7.49999987	    118.24436611	    -12.33633308	      6.84371060	    104.50378316	      1.82393510	     37.30130803	      3.67396180	     -7.49999987	    -28.08997507	     -0.07422966	      4.40221415	     92.36971514	    -11.45196881	     28.98802656	    120.95529264	    104.14119839	    102.21336712	    -15.38955953	     45.97137639	    118.60259193	    101.16413489
      3.00416670	    -42.68233133	     -0.48688290	     -3.04453248	     -0.04432126	      0.56583968	     -0.07977580	    114.76050097	     -8.53905014	      0.77281771	    101.88409874	      1.77821298	     39.83021998	      0.34063314	     -7.49999987	    118.19749878	    -12.22811625	      6.84760153	    104.39501450	      1.82203673	     37.42293535	      3.56844942	     -7.49999987	    -28.02909567	     -0.06138685	      4.45210264	     92.51633650	    -11.31929671	     29.12980580	    120.60145030	    104.03737132	    102.06241764	    -15.29182674	     45.77354727	    118.45840854	    101.12768447
      3.00833330	    -42.83406177	     -0.42971444	     -3.06403523	     -0.04397108	      0.56580478	     -0.07859524	    114.86042850	     -8.50532570	      0.75710345	    101.85241256	      1.77765995	     39.81029628	     -0.07573941	     -7.49999987	    118.24191591	    -12.16371939	      6.90289393	    104.39002139	      1.82194958	     37.49806631	      3.55742061	     -7.49999987	    -27.93177332	     -0.08212486	      4.40108218	     92.62798268	    -11.19792636	     29.26964908	    120.32437881	    104.03540074	    101.95630895	    -15.41193153	     45.65866641	    118.42896897	    100.98849484
      3.01250000	    -42.99557084	     -0.36928173	     -3.14426395	     -0.04382115	      0.56648217	     -0.07898411	    114.92887560	     -8.39761179	      0.74474938	    101.75815804	      1.77601490	     39.78360129	     -0.34911313	     -7.49999987	    118.27446300	    -12.20612228	      6.92403456	    104.32282867	      1.82077685	     37.62152115	      3.64397818	     -7.49999987	    -27.79017483	     -0.16821111	      4.39888249	     92.53295430	    -11.12612954	     29.32930640	    120.17558170	    104.01418371	    101.81306702	    -15.41005576	     45.59392235	    118.27312203	    100.88943997
      3.01666670	    -43.11116482	     -0.36781759	     -3.17252722	     -0.04361328	      0.56643466	     -0.07747659	    114.99752804	     -8.27790041	      0.68892707	    101.69737578	      1.77495405	     39.70514858	     -0.52951726	     -7.49999987	    118.31315390	    -12.25882555	      7.01470803	    104.24107521	      1.81934998	     37.66278183	      3.69369659	     -7.49999987	    -27.69703339	     -0.19906269	      4.42844510	     92.67265352	    -10.99662042	     29.45903104	    119.90070149	    103.80918104	    101.68346453	    -15.40638422	     45.38545348	    118.18024504	    100.59190014
      3.02083330	    -43.24955690	     -0.34899012	     -3.20725311	     -0.04201016	      0.56828849	     -0.07903342	    114.91085698	     -8.15925751	      0.67131789	    101.43733795	      1.77041553	     39.59791038	     -0.69006791	     -7.49999987	    118.25552389	    -12.28278015	      6.99932348	    104.09120247	      1.81673421	     37.64681639	      3.59172415	     -7.49999987	    -27.60322170	     -0.25168543	      4.50560194	     92.59893129	    -11.05307373	     29.49820782	    119.79982317	    103.72121135	    101.44378365	    -15.26831590	     45.40426361	    118.06260166	    100.60866267
      3.02500000	    -43.41630932	     -0.30520653	     -3.21065808	     -0.04142623	      0.56847932	     -0.07833980	    114.87947505	     -8.07583062	      0.69535621	    101.24837088	      1.76711743	     39.75743997	     -0.55393394	     -7.49999987	    118.21856496	    -12.31857183	      6.95354536	    103.95833853	      1.81441529	     37.69735830	      3.57985580	     -7.49999987	    -27.43490009	     -0.30720106	      4.49862261	     92.49111735	    -10.86972486	     29.50978403	    119.51668734	    103.75709563	    101.17795282	    -15.24161045	     45.22963456	    117.85703401	    100.47545551
      3.02916670	    -43.51849968	     -0.28571641	     -3.25480656	     -0.04279186	      0.57029262	     -0.07891998	    114.78356844	     -7.99315891	      0.68131868	    100.98708817	      1.76255719	     39.71022485	     -0.62602828	     -7.49999987	    118.11340865	    -12.29860413	      6.90124873	    103.70440676	      1.80998335	     37.68887593	      3.46721529	     -7.49999987	    -27.39851183	     -0.35208299	      4.55646869	     92.56727940	    -10.77559191	     29.49788967	    119.18176423	    103.63523447	    101.07533817	    -15.14540600	     45.07732294	    117.62866588	    100.33445718
